<svg xmlns="http://www.w3.org/2000/svg" viewBox="0 0 320 220" width="320" height="220">
<defs>
<radialGradient id="fade" cx="50%" cy="68%" r="62%"><stop offset="0" stop-color="#fff"/><stop offset="0.55" stop-color="#fff" stop-opacity="0.85"/><stop offset="1" stop-color="#fff" stop-opacity="0"/></radialGradient>
<mask id="gridmask"><rect width="320" height="220" fill="url(#fade)"/></mask>
<radialGradient id="shadow"><stop offset="0" stop-color="#161b21" stop-opacity="0.16"/><stop offset="1" stop-color="#161b21" stop-opacity="0"/></radialGradient>
</defs>
<rect width="320" height="220" fill="#fff"/>
<g mask="url(#gridmask)"><path d="M165.2,3.0 L-94.6,153.0" stroke="#cdd1d6" stroke-width="0.8"/><path d="M154.8,3.0 L414.6,153.0" stroke="#cdd1d6" stroke-width="0.8"/><path d="M180.8,12.0 L-79.0,162.0" stroke="#cdd1d6" stroke-width="0.8"/><path d="M139.2,12.0 L399.0,162.0" stroke="#cdd1d6" stroke-width="0.8"/><path d="M196.4,21.0 L-63.4,171.0" stroke="#cdd1d6" stroke-width="0.8"/><path d="M123.6,21.0 L383.4,171.0" stroke="#cdd1d6" stroke-width="0.8"/><path d="M212.0,30.0 L-47.8,180.0" stroke="#cdd1d6" stroke-width="0.8"/><path d="M108.0,30.0 L367.8,180.0" stroke="#cdd1d6" stroke-width="0.8"/><path d="M227.5,39.0 L-32.3,189.0" stroke="#cdd1d6" stroke-width="0.8"/><path d="M92.5,39.0 L352.3,189.0" stroke="#cdd1d6" stroke-width="0.8"/><path d="M243.1,48.0 L-16.7,198.0" stroke="#cdd1d6" stroke-width="0.8"/><path d="M76.9,48.0 L336.7,198.0" stroke="#cdd1d6" stroke-width="0.8"/><path d="M258.7,57.0 L-1.1,207.0" stroke="#cdd1d6" stroke-width="0.8"/><path d="M61.3,57.0 L321.1,207.0" stroke="#cdd1d6" stroke-width="0.8"/><path d="M274.3,66.0 L14.5,216.0" stroke="#cdd1d6" stroke-width="0.8"/><path d="M45.7,66.0 L305.5,216.0" stroke="#cdd1d6" stroke-width="0.8"/><path d="M289.9,75.0 L30.1,225.0" stroke="#cdd1d6" stroke-width="0.8"/><path d="M30.1,75.0 L289.9,225.0" stroke="#cdd1d6" stroke-width="0.8"/><path d="M305.5,84.0 L45.7,234.0" stroke="#cdd1d6" stroke-width="0.8"/><path d="M14.5,84.0 L274.3,234.0" stroke="#cdd1d6" stroke-width="0.8"/><path d="M321.1,93.0 L61.3,243.0" stroke="#cdd1d6" stroke-width="0.8"/><path d="M-1.1,93.0 L258.7,243.0" stroke="#cdd1d6" stroke-width="0.8"/><path d="M336.7,102.0 L76.9,252.0" stroke="#cdd1d6" stroke-width="0.8"/><path d="M-16.7,102.0 L243.1,252.0" stroke="#cdd1d6" stroke-width="0.8"/><path d="M352.3,111.0 L92.5,261.0" stroke="#cdd1d6" stroke-width="0.8"/><path d="M-32.3,111.0 L227.5,261.0" stroke="#cdd1d6" stroke-width="0.8"/><path d="M367.8,120.0 L108.0,270.0" stroke="#cdd1d6" stroke-width="0.8"/><path d="M-47.8,120.0 L212.0,270.0" stroke="#cdd1d6" stroke-width="0.8"/><path d="M383.4,129.0 L123.6,279.0" stroke="#cdd1d6" stroke-width="0.8"/><path d="M-63.4,129.0 L196.4,279.0" stroke="#cdd1d6" stroke-width="0.8"/><path d="M399.0,138.0 L139.2,288.0" stroke="#cdd1d6" stroke-width="0.8"/><path d="M-79.0,138.0 L180.8,288.0" stroke="#cdd1d6" stroke-width="0.8"/><path d="M414.6,147.0 L154.8,297.0" stroke="#cdd1d6" stroke-width="0.8"/><path d="M-94.6,147.0 L165.2,297.0" stroke="#cdd1d6" stroke-width="0.8"/></g>
<g transform="translate(-51.7 -20.8) scale(1.200)">
<ellipse cx="137.5" cy="145.0" rx="64" ry="20" fill="url(#shadow)"/><ellipse cx="250.0" cy="175.0" rx="34" ry="10" fill="url(#shadow)"/>
<path d="M130.6,83.0 L175.6,109.0 L175.6,145.0 L137.5,167.0 L92.5,141.0 L92.5,105.0 Z" fill="#fff" opacity="1.0"/><path d="M130.5,83.1 L137.1,86.6 L143.6,90.1 L150.1,93.7 L156.6,97.4 L162.9,101.2 L169.2,105.2 L175.5,108.8 L169.0,112.3 L162.6,115.9 L156.3,119.6 L150.0,123.4 L143.8,127.3 L137.4,131.2 L130.8,127.7 L124.3,124.0 L117.9,120.3 L111.6,116.4 L105.3,112.5 L99.0,108.5 L92.7,105.4 L99.1,101.8 L105.4,98.1 L111.6,94.3 L117.9,90.3 L124.1,86.4 L130.6,83.0" fill="none" stroke="#474e56" stroke-width="1.00" stroke-linecap="round" stroke-linejoin="round" opacity="1.00"/><path d="M130.8,82.6 L137.0,86.7 L143.2,90.9 L149.4,94.9 L155.8,98.7 L162.3,102.3 L168.9,105.7 L175.6,109.0 L169.5,113.0 L163.3,117.0 L157.0,120.9 L150.6,124.5 L144.1,127.9 L137.4,131.1 L131.2,127.0 L125.0,122.9 L118.7,119.0 L112.2,115.3 L105.7,111.8 L99.0,108.5 L92.3,104.8 L98.5,100.7 L104.7,96.9 L111.0,93.2 L117.5,89.7 L124.0,86.4 L130.6,83.0" fill="none" stroke="#474e56" stroke-width="0.80" stroke-linecap="round" stroke-linejoin="round" opacity="0.35"/><path d="M175.6,109.0 L175.9,116.2 L176.1,123.4 L176.1,130.6 L176.0,137.8 L175.6,145.0" fill="none" stroke="#474e56" stroke-width="1.00" stroke-linecap="round" stroke-linejoin="round" opacity="1.00"/><path d="M174.7,109.0 L174.6,116.2 L174.8,123.4 L175.1,130.6 L175.6,137.8 L175.6,145.0" fill="none" stroke="#474e56" stroke-width="0.80" stroke-linecap="round" stroke-linejoin="round" opacity="0.35"/><path d="M137.9,131.0 L138.0,138.2 L138.0,145.4 L137.8,152.6 L137.5,159.8 L137.5,167.0" fill="none" stroke="#474e56" stroke-width="1.00" stroke-linecap="round" stroke-linejoin="round" opacity="1.00"/><path d="M136.9,131.0 L136.6,138.2 L136.5,145.4 L136.6,152.6 L136.8,159.8 L137.5,167.0" fill="none" stroke="#474e56" stroke-width="0.80" stroke-linecap="round" stroke-linejoin="round" opacity="0.35"/><path d="M92.2,105.0 L91.9,112.2 L91.9,119.4 L92.1,126.6 L92.3,133.8 L92.5,141.0" fill="none" stroke="#474e56" stroke-width="1.00" stroke-linecap="round" stroke-linejoin="round" opacity="1.00"/><path d="M93.4,105.0 L93.4,112.2 L93.4,119.4 L93.2,126.6 L92.9,133.8 L92.5,141.0" fill="none" stroke="#474e56" stroke-width="0.80" stroke-linecap="round" stroke-linejoin="round" opacity="0.35"/><path d="M175.6,145.1 L169.1,148.4 L162.6,151.9 L156.3,155.5 L150.0,159.4 L143.8,163.3 L137.3,167.3 L130.8,163.7 L124.4,160.0 L118.0,156.1 L111.8,152.1 L105.5,148.1 L99.2,144.2 L92.5,141.0" fill="none" stroke="#474e56" stroke-width="1.00" stroke-linecap="round" stroke-linejoin="round" opacity="1.00"/><path d="M176.0,145.7 L169.7,149.5 L163.3,153.1 L156.8,156.4 L150.2,159.7 L143.6,162.9 L137.9,166.2 L131.5,162.4 L125.0,158.9 L118.4,155.5 L111.7,152.3 L105.0,149.0 L98.4,145.5 L92.5,141.0" fill="none" stroke="#474e56" stroke-width="0.80" stroke-linecap="round" stroke-linejoin="round" opacity="0.35"/><path d="M130.1,83.0 L130.0,91.4 L130.0,99.8 L130.6,108.2" fill="none" stroke="#474e56" stroke-width="1.00" stroke-linecap="round" stroke-linejoin="round" opacity="0.60"/><path d="M130.7,83.0 L131.1,91.4 L131.4,99.8 L130.6,108.2" fill="none" stroke="#474e56" stroke-width="0.80" stroke-linecap="round" stroke-linejoin="round" opacity="0.21"/><path d="M130.3,108.6 L136.7,112.4 L143.2,116.0 L149.7,119.6 L156.2,123.1 L162.8,126.6 L169.3,130.2 L175.6,134.2" fill="none" stroke="#474e56" stroke-width="1.00" stroke-linecap="round" stroke-linejoin="round" opacity="0.35"/><path d="M130.5,108.1 L124.0,111.6 L117.6,115.1 L111.2,118.7 L104.9,122.5 L98.7,126.3 L92.5,130.2" fill="none" stroke="#474e56" stroke-width="1.00" stroke-linecap="round" stroke-linejoin="round" opacity="0.35"/><path d="M130.6,83.0 L175.6,109.0 L186.0,77.0 L140.9,51.0 Z" fill="#fff" opacity="1.0"/><path d="M130.7,83.1 L133.0,74.9 L135.3,66.9 L137.8,58.8 L141.1,50.7 L147.4,54.7 L153.7,58.7 L160.0,62.6 L166.4,66.3 L172.9,69.9 L179.5,73.3 L186.2,77.1 L183.9,85.2 L181.3,93.2 L178.4,101.1 L175.6,109.0" fill="none" stroke="#474e56" stroke-width="1.00" stroke-linecap="round" stroke-linejoin="round" opacity="1.00"/><path d="M130.4,83.0 L132.5,74.8 L134.8,66.7 L137.5,58.7 L141.2,50.6 L147.3,54.8 L153.5,58.9 L159.8,62.9 L166.2,66.7 L172.8,70.2 L179.4,73.5 L186.3,77.1 L184.1,85.2 L181.7,93.3 L178.9,101.2 L175.6,109.0" fill="none" stroke="#474e56" stroke-width="0.80" stroke-linecap="round" stroke-linejoin="round" opacity="0.35"/><path d="M130.6,83.0 L92.5,105.0 L73.4,82.0 L111.5,60.0 Z" fill="#fff" opacity="1.0"/><path d="M130.6,83.0 L125.6,77.4 L120.6,71.8 L115.8,66.1 L111.7,60.4 L105.2,63.8 L98.7,67.2 L92.2,70.7 L85.8,74.2 L79.5,77.9 L73.1,82.2 L78.1,87.8 L83.1,93.3 L88.1,98.9 L92.5,105.0" fill="none" stroke="#474e56" stroke-width="1.00" stroke-linecap="round" stroke-linejoin="round" opacity="1.00"/><path d="M130.8,82.8 L125.7,77.4 L120.6,71.9 L115.6,66.3 L112.0,60.9 L105.6,64.4 L99.1,67.9 L92.6,71.2 L86.0,74.5 L79.4,77.8 L72.7,82.6 L77.4,88.4 L82.2,94.1 L87.2,99.6 L92.5,105.0" fill="none" stroke="#474e56" stroke-width="0.80" stroke-linecap="round" stroke-linejoin="round" opacity="0.35"/><path d="M158.3,145.0 L158.3,131.0" stroke="#117780" stroke-width="1.2" opacity="0.9"/><path d="M155.5,146.6 L155.5,132.6" stroke="#117780" stroke-width="0.6" opacity="0.9"/><path d="M152.7,148.2 L152.7,134.2" stroke="#117780" stroke-width="1.2" opacity="0.9"/><path d="M150.0,149.8 L150.0,135.8" stroke="#117780" stroke-width="0.6" opacity="0.9"/><path d="M147.2,151.4 L147.2,137.4" stroke="#117780" stroke-width="1.6" opacity="0.9"/><path d="M144.4,153.0 L144.4,139.0" stroke="#117780" stroke-width="0.6" opacity="0.9"/><path d="M141.6,154.6 L141.6,140.6" stroke="#117780" stroke-width="1.2" opacity="0.9"/><path d="M237.9,151.5 L279.4,175.5 L279.4,179.0 L262.1,189.0 L220.6,165.0 L220.6,161.5 Z" fill="#fff" opacity="1.0"/><path d="M237.9,151.5 L244.6,155.8 L251.5,160.0 L258.4,163.9 L265.5,167.6 L272.6,171.3 L279.7,175.9 L271.0,180.9 L262.1,185.6 L255.3,181.3 L248.5,177.0 L241.6,173.1 L234.5,169.3 L227.4,165.6 L220.3,161.1 L229.0,156.0 L237.9,151.5" fill="none" stroke="#474e56" stroke-width="1.00" stroke-linecap="round" stroke-linejoin="round" opacity="1.00"/><path d="M238.3,150.8 L245.0,155.2 L251.6,159.7 L258.3,164.2 L265.1,168.4 L272.1,172.2 L279.3,175.2 L271.0,180.8 L261.7,186.3 L254.7,182.3 L247.9,178.1 L241.3,173.6 L234.7,169.1 L227.9,164.7 L221.0,162.3 L229.5,157.0 L237.9,151.5" fill="none" stroke="#474e56" stroke-width="0.80" stroke-linecap="round" stroke-linejoin="round" opacity="0.35"/><path d="M278.9,175.5 L279.2,178.6 L270.7,183.8 L262.1,189.1 L255.0,185.3 L248.0,181.4 L241.1,177.5 L234.2,173.4 L227.3,169.2 L220.5,165.0 L220.6,161.5" fill="none" stroke="#474e56" stroke-width="1.00" stroke-linecap="round" stroke-linejoin="round" opacity="1.00"/><path d="M278.5,175.5 L279.0,178.2 L270.5,183.5 L262.2,188.9 L255.0,185.3 L247.9,181.6 L240.9,177.8 L233.9,173.9 L227.0,169.8 L219.9,165.0 L220.6,161.5" fill="none" stroke="#474e56" stroke-width="0.80" stroke-linecap="round" stroke-linejoin="round" opacity="0.35"/><path d="M262.7,185.5 L262.1,189.0" fill="none" stroke="#474e56" stroke-width="1.00" stroke-linecap="round" stroke-linejoin="round" opacity="1.00"/><path d="M262.9,185.5 L262.1,189.0" fill="none" stroke="#474e56" stroke-width="0.80" stroke-linecap="round" stroke-linejoin="round" opacity="0.35"/><path d="M229.1,160.8 L234.0,163.8" fill="none" stroke="#474e56" stroke-width="1.10" stroke-linecap="round" stroke-linejoin="round" opacity="0.80"/><path d="M258.2,177.7 L263.1,180.6" fill="none" stroke="#474e56" stroke-width="1.10" stroke-linecap="round" stroke-linejoin="round" opacity="0.80"/><path d="M244.5,168.5 L243.7,168.4 L243.0,168.1 L242.4,167.6 L241.9,167.0 L241.6,166.3 L241.5,165.5 L241.5,161.0 L241.6,160.2 L241.9,159.5 L242.4,158.9 L243.0,158.4 L243.7,158.1 L244.5,158.0 L255.5,158.0 L256.3,158.1 L257.0,158.4 L257.6,158.9 L258.1,159.5 L258.4,160.2 L258.5,161.0 L258.5,165.5 L258.4,166.3 L258.1,167.0 L257.6,167.6 L257.0,168.1 L256.3,168.4 L255.5,168.5 Z" fill="#fff" opacity="1.0"/><path d="M244.5,168.8 L243.6,168.6 L242.9,168.3 L242.2,167.8 L241.7,167.1 L241.4,166.3 L241.4,165.5 L241.5,161.0 L241.7,160.2 L242.0,159.6 L242.5,159.0 L243.1,158.5 L243.7,158.3 L244.5,158.2 L255.4,158.5 L256.1,158.6 L256.7,158.8 L257.2,159.2 L257.6,159.7 L257.9,160.3 L258.0,161.0 L258.0,165.4 L257.9,166.1 L257.7,166.7 L257.3,167.2 L256.8,167.6 L256.2,167.9 L255.5,168.0 L244.5,168.5" fill="none" stroke="#474e56" stroke-width="1.00" stroke-linecap="round" stroke-linejoin="round" opacity="1.00"/><path d="M244.5,168.6 L243.7,168.5 L243.0,168.1 L242.4,167.6 L242.0,167.0 L241.7,166.3 L241.7,165.5 L242.0,161.1 L242.1,160.4 L242.3,159.8 L242.7,159.3 L243.2,159.0 L243.8,158.8 L244.5,158.7 L255.4,159.0 L255.9,159.0 L256.4,159.2 L256.8,159.5 L257.2,159.9 L257.4,160.4 L257.5,161.0 L257.7,165.4 L257.6,166.0 L257.5,166.5 L257.2,167.0 L256.7,167.4 L256.2,167.7 L255.5,167.9 L244.5,168.5" fill="none" stroke="#474e56" stroke-width="0.80" stroke-linecap="round" stroke-linejoin="round" opacity="0.35"/><path d="M258.3,163.4 L258.0,164.1 L257.2,164.7 L255.9,165.3 L254.2,165.7 L252.2,165.9 L250.0,166.0 L247.9,165.9 L245.9,165.6 L244.2,165.1 L243.0,164.6 L242.3,164.1 L241.5,163.5" fill="none" stroke="#474e56" stroke-width="1.00" stroke-linecap="round" stroke-linejoin="round" opacity="0.50"/><path d="M237.5,69.0 L238.8,69.0 L240.1,69.3 L241.3,69.9 L242.2,70.8 L242.9,72.0 L243.2,73.2 L254.6,147.3 L254.7,148.6 L254.4,149.8 L253.7,151.0 L252.8,151.9 L251.7,152.6 L250.5,153.0 L250.5,153.0 L249.2,153.0 L247.9,152.7 L246.7,152.1 L245.8,151.2 L245.1,150.0 L244.8,148.8 L233.4,74.7 L233.3,73.4 L233.6,72.2 L234.3,71.0 L235.2,70.1 L236.3,69.4 L237.5,69.0 Z" fill="#fff" opacity="1.0"/><path d="M237.5,68.5 L239.0,68.5 L240.4,68.9 L241.6,69.6 L242.6,70.6 L243.3,71.8 L243.7,73.2 L244.6,80.6 L245.5,88.0 L246.4,95.5 L247.4,102.9 L248.4,110.3 L249.6,117.7 L250.8,125.1 L252.1,132.5 L253.5,139.9 L254.9,147.3 L255.0,148.6 L254.6,150.0 L254.0,151.2 L253.0,152.3 L251.8,153.0 L250.5,153.0 L250.5,153.4 L249.0,153.5 L247.6,153.1 L246.4,152.4 L245.3,151.4 L244.6,150.2 L244.2,148.9 L243.1,141.5 L242.1,134.0 L241.2,126.6 L240.3,119.2 L239.4,111.7 L238.4,104.3 L237.3,96.9 L236.1,89.5 L234.9,82.1 L233.5,74.7 L233.4,73.5 L233.7,72.2 L234.3,71.0 L235.2,70.1 L236.3,69.3 L237.5,69.0 L237.5,69.0" fill="none" stroke="#474e56" stroke-width="1.00" stroke-linecap="round" stroke-linejoin="round" opacity="1.00"/><path d="M237.6,69.5 L238.7,69.6 L239.8,69.9 L240.8,70.5 L241.6,71.2 L242.1,72.2 L242.4,73.3 L243.4,80.8 L244.6,88.2 L246.1,95.5 L247.6,102.9 L249.2,110.2 L250.7,117.5 L252.1,124.9 L253.3,132.3 L254.3,139.7 L255.1,147.3 L255.1,148.7 L254.6,150.0 L253.9,151.1 L252.9,152.1 L251.7,152.7 L250.5,153.0 L250.5,153.0 L249.2,152.9 L248.0,152.5 L246.9,151.9 L246.1,151.0 L245.5,149.9 L245.2,148.7 L244.4,141.3 L243.4,133.8 L242.3,126.4 L240.9,119.1 L239.3,111.7 L237.7,104.4 L236.2,97.0 L234.7,89.7 L233.5,82.3 L232.5,74.8 L232.5,73.2 L233.0,71.8 L233.8,70.5 L234.8,69.5 L236.1,68.8 L237.5,69.0 L237.5,69.0" fill="none" stroke="#474e56" stroke-width="0.80" stroke-linecap="round" stroke-linejoin="round" opacity="0.35"/><path d="M247.7,136.0 L246.9,128.8 L246.1,121.6 L245.1,114.5 L243.9,107.4 L242.6,100.3 L241.2,93.2 L240.2,86.0" fill="none" stroke="#474e56" stroke-width="0.70" stroke-linecap="round" stroke-linejoin="round" opacity="0.30"/><path d="M253.3,138.4 L254.3,138.3 L255.3,138.6 L256.2,139.1 L257.0,139.8 L257.5,140.7 L257.8,141.7 L260.0,155.6 L260.0,156.6 L259.7,157.6 L259.2,158.5 L258.5,159.3 L257.6,159.8 L256.6,160.1 L246.7,161.6 L245.7,161.7 L244.7,161.4 L243.8,160.9 L243.0,160.2 L242.5,159.3 L242.2,158.3 L240.0,144.4 L240.0,143.4 L240.3,142.4 L240.8,141.5 L241.5,140.7 L242.4,140.2 L243.4,139.9 Z" fill="#fff" opacity="1.0"/><path d="M253.3,138.7 L254.2,138.7 L255.1,139.0 L255.9,139.4 L256.6,140.1 L257.1,140.8 L257.3,141.8 L259.4,155.6 L259.5,156.5 L259.3,157.4 L258.9,158.2 L258.3,158.9 L257.5,159.4 L256.6,159.7 L246.7,161.5 L245.7,161.6 L244.7,161.4 L243.8,160.9 L243.0,160.2 L242.4,159.3 L242.1,158.3 L239.6,144.5 L239.6,143.3 L239.8,142.2 L240.4,141.1 L241.2,140.3 L242.2,139.7 L243.3,139.4 L253.3,138.4" fill="none" stroke="#474e56" stroke-width="1.00" stroke-linecap="round" stroke-linejoin="round" opacity="1.00"/><path d="M253.3,139.0 L254.2,139.0 L255.0,139.2 L255.8,139.6 L256.4,140.2 L256.8,140.9 L257.0,141.8 L259.0,155.6 L259.0,156.4 L258.9,157.1 L258.5,157.9 L258.0,158.5 L257.4,158.9 L256.5,159.2 L246.7,161.1 L245.8,161.2 L244.9,161.0 L244.0,160.6 L243.3,160.0 L242.8,159.2 L242.4,158.2 L239.6,144.5 L239.5,143.3 L239.8,142.1 L240.3,141.1 L241.2,140.2 L242.2,139.5 L243.3,139.2 L253.3,138.4" fill="none" stroke="#474e56" stroke-width="0.80" stroke-linecap="round" stroke-linejoin="round" opacity="0.35"/><path d="M254.0,150.0 L253.9,150.7 L253.8,151.4 L253.4,152.0 L253.0,152.6 L252.5,153.1 L252.0,153.5 L251.3,153.7 L250.6,153.9 L250.0,154.0 L249.3,153.9 L248.6,153.7 L248.0,153.4 L247.5,153.0 L247.0,152.5 L246.6,151.9 L246.4,151.3 L246.2,150.6 L246.2,150.0 L246.2,149.3 L246.4,148.7 L246.7,148.1 L247.1,147.6 L247.6,147.1 L248.2,146.8 L248.7,146.5 L249.4,146.4 L250.0,146.3 L250.7,146.4 L251.3,146.6 L251.8,146.9 L252.3,147.2 L252.8,147.7 L253.1,148.2 L253.3,148.8 L253.5,149.4 L253.5,150.0" fill="none" stroke="#474e56" stroke-width="1.00" stroke-linecap="round" stroke-linejoin="round" opacity="0.60"/><path d="M203.8,57.0 L204.3,56.1 L205.1,55.4 L206.0,54.9 L207.0,54.7 L208.1,54.7 L209.1,55.0 L238.1,67.7 L239.0,68.2 L239.8,69.0 L240.3,69.9 L240.5,70.9 L240.5,72.0 L240.2,73.0 L240.2,73.0 L239.7,73.9 L238.9,74.6 L238.0,75.1 L237.0,75.3 L235.9,75.3 L234.9,75.0 L205.9,62.3 L205.0,61.8 L204.2,61.0 L203.7,60.1 L203.5,59.1 L203.5,58.0 L203.8,57.0 Z" fill="#fff" opacity="1.0"/><path d="M203.6,56.9 L204.2,56.0 L205.0,55.2 L205.9,54.6 L207.0,54.3 L208.2,54.3 L209.2,54.6 L216.6,57.7 L223.8,60.9 L231.0,64.2 L238.2,67.6 L239.1,68.2 L239.8,69.0 L240.2,69.9 L240.5,70.9 L240.4,71.9 L240.2,73.0 L240.1,72.9 L239.5,73.7 L238.8,74.4 L237.9,74.9 L237.0,75.1 L236.0,75.0 L235.1,74.7 L227.9,71.4 L220.6,68.2 L213.3,65.1 L206.0,62.2 L205.1,61.7 L204.3,61.0 L203.8,60.1 L203.5,59.1 L203.5,58.0 L203.8,57.0 L203.8,57.0" fill="none" stroke="#474e56" stroke-width="1.00" stroke-linecap="round" stroke-linejoin="round" opacity="1.00"/><path d="M204.6,57.5 L205.0,56.8 L205.6,56.3 L206.2,55.9 L207.0,55.7 L207.8,55.6 L208.7,55.9 L216.0,58.8 L223.5,61.5 L231.0,64.1 L238.6,67.0 L239.7,67.6 L240.6,68.5 L241.2,69.7 L241.5,70.9 L241.4,72.2 L240.2,73.0 L241.0,73.5 L240.3,74.6 L239.4,75.4 L238.2,76.0 L237.0,76.3 L235.7,76.2 L234.6,75.8 L227.5,72.2 L220.5,68.5 L213.4,64.8 L206.4,61.5 L205.7,61.1 L205.1,60.5 L204.7,59.9 L204.5,59.1 L204.4,58.3 L203.8,57.0 L203.8,57.0" fill="none" stroke="#474e56" stroke-width="0.80" stroke-linecap="round" stroke-linejoin="round" opacity="0.35"/><path d="M232.4,69.1 L225.6,66.0 L218.8,63.0 L211.8,60.5" fill="none" stroke="#474e56" stroke-width="0.70" stroke-linecap="round" stroke-linejoin="round" opacity="0.30"/><path d="M231.5,61.1 L232.5,60.3 L233.7,59.7 L235.0,59.4 L236.3,59.5 L237.5,59.9 L238.6,60.6 L249.2,69.8 L250.0,70.7 L250.6,71.9 L250.9,73.2 L250.8,74.5 L250.4,75.7 L249.7,76.8 L244.5,82.9 L243.5,83.7 L242.3,84.3 L241.0,84.6 L239.7,84.5 L238.5,84.1 L237.4,83.4 L226.8,74.2 L226.0,73.3 L225.4,72.1 L225.1,70.8 L225.2,69.5 L225.6,68.3 L226.3,67.2 Z" fill="#fff" opacity="1.0"/><path d="M231.8,61.4 L232.7,60.6 L233.8,60.1 L234.9,59.9 L236.1,59.9 L237.2,60.3 L238.2,61.0 L248.8,70.1 L249.7,70.9 L250.3,72.0 L250.5,73.2 L250.5,74.4 L250.2,75.6 L249.5,76.7 L244.5,82.9 L243.5,83.8 L242.4,84.5 L241.0,84.8 L239.7,84.7 L238.3,84.3 L237.2,83.6 L226.4,74.6 L225.5,73.5 L224.8,72.2 L224.6,70.8 L224.7,69.4 L225.2,68.0 L225.9,66.9 L231.5,61.1" fill="none" stroke="#474e56" stroke-width="1.00" stroke-linecap="round" stroke-linejoin="round" opacity="1.00"/><path d="M232.2,61.8 L232.9,61.1 L233.9,60.6 L234.9,60.4 L235.9,60.4 L237.0,60.7 L238.0,61.3 L248.8,70.1 L249.7,70.9 L250.3,72.0 L250.7,73.2 L250.7,74.4 L250.3,75.7 L249.7,76.8 L244.8,83.2 L243.7,84.2 L242.4,84.9 L241.0,85.2 L239.5,85.2 L238.1,84.7 L236.9,84.0 L226.1,74.9 L225.1,73.7 L224.5,72.3 L224.2,70.8 L224.4,69.2 L224.9,67.8 L225.7,66.7 L231.5,61.1" fill="none" stroke="#474e56" stroke-width="0.80" stroke-linecap="round" stroke-linejoin="round" opacity="0.35"/><path d="M236.7,64.9 L237.3,64.3 L238.0,64.0 L238.8,63.8 L239.5,63.9 L240.3,64.1 L240.9,64.5 L246.2,69.1 L246.8,69.7 L247.1,70.4 L247.3,71.2 L247.2,72.0 L247.0,72.7 L246.6,73.4 L243.3,77.1 L242.7,77.7 L242.0,78.0 L241.2,78.2 L240.5,78.1 L239.7,77.9 L239.1,77.5 L233.8,72.9 L233.2,72.3 L232.9,71.6 L232.7,70.8 L232.8,70.0 L233.0,69.3 L233.4,68.6 Z" fill="#fff" opacity="1.0"/><path d="M236.6,64.8 L237.3,64.3 L238.0,64.0 L238.8,63.8 L239.5,63.9 L240.3,64.2 L240.9,64.6 L246.0,69.4 L246.4,69.9 L246.7,70.5 L246.8,71.2 L246.8,71.8 L246.6,72.4 L246.2,73.0 L242.9,76.7 L242.5,77.2 L241.9,77.5 L241.3,77.6 L240.6,77.6 L240.0,77.4 L239.4,77.1 L234.0,72.7 L233.5,72.2 L233.1,71.5 L232.9,70.8 L233.0,70.1 L233.1,69.4 L233.5,68.7 L236.7,64.9" fill="none" stroke="#474e56" stroke-width="1.00" stroke-linecap="round" stroke-linejoin="round" opacity="1.00"/><path d="M237.3,65.6 L237.7,65.2 L238.2,64.8 L238.7,64.7 L239.3,64.6 L239.9,64.8 L240.5,65.1 L246.1,69.3 L246.6,69.8 L247.0,70.4 L247.2,71.2 L247.3,72.0 L247.1,72.8 L246.7,73.5 L243.7,77.6 L243.0,78.2 L242.1,78.7 L241.2,78.9 L240.2,78.8 L239.3,78.5 L238.5,78.1 L233.0,73.5 L232.4,72.7 L231.9,71.8 L231.8,70.8 L231.9,69.7 L232.2,68.8 L232.8,68.1 L236.7,64.9" fill="none" stroke="#474e56" stroke-width="0.80" stroke-linecap="round" stroke-linejoin="round" opacity="0.35"/><path d="M215.0,60.0 L214.9,61.0 L214.5,62.0 L213.8,62.8 L213.0,63.5 L212.0,63.9 L211.0,64.0 L201.0,64.0 L200.0,63.9 L199.0,63.5 L198.2,62.8 L197.5,62.0 L197.1,61.0 L197.0,60.0 L197.0,56.0 L197.1,55.0 L197.5,54.0 L198.2,53.2 L199.0,52.5 L200.0,52.1 L201.0,52.0 L211.0,52.0 L212.0,52.1 L213.0,52.5 L213.8,53.2 L214.5,54.0 L214.9,55.0 L215.0,56.0 Z" fill="#fff" opacity="1.0"/><path d="M214.5,59.9 L214.4,60.8 L214.0,61.7 L213.5,62.4 L212.8,63.0 L212.0,63.3 L211.0,63.5 L201.0,63.6 L200.1,63.5 L199.2,63.2 L198.4,62.7 L197.8,61.9 L197.4,61.0 L197.2,60.0 L197.0,56.0 L197.1,55.0 L197.5,54.0 L198.1,53.1 L199.0,52.4 L199.9,52.0 L201.0,51.8 L211.1,51.5 L212.2,51.7 L213.3,52.1 L214.2,52.9 L214.9,53.8 L215.4,54.9 L215.5,56.0 L215.0,60.0" fill="none" stroke="#474e56" stroke-width="1.00" stroke-linecap="round" stroke-linejoin="round" opacity="1.00"/><path d="M215.8,60.1 L215.5,61.3 L215.0,62.4 L214.2,63.3 L213.2,64.0 L212.1,64.4 L211.0,64.4 L201.0,63.7 L200.1,63.5 L199.3,63.1 L198.6,62.5 L198.1,61.8 L197.8,61.0 L197.7,60.0 L197.9,56.1 L198.0,55.3 L198.3,54.6 L198.8,53.9 L199.4,53.4 L200.1,53.1 L201.0,53.0 L210.9,52.7 L211.8,52.8 L212.6,53.0 L213.4,53.5 L214.0,54.2 L214.5,55.0 L214.7,56.0 L215.0,60.0" fill="none" stroke="#474e56" stroke-width="0.80" stroke-linecap="round" stroke-linejoin="round" opacity="0.35"/><path d="M197.0,63.0 L215.0,63.0 L215.0,74.0 L197.0,74.0 Z" fill="#fff" opacity="1.0"/><path d="M197.0,63.3 L206.0,63.5 L214.6,63.0 L215.0,74.0 L206.0,74.4 L196.5,74.0 L197.0,63.0" fill="none" stroke="#474e56" stroke-width="1.00" stroke-linecap="round" stroke-linejoin="round" opacity="1.00"/><path d="M197.0,64.0 L206.0,63.9 L214.3,63.0 L215.0,73.9 L206.0,74.5 L196.1,74.0 L197.0,63.0" fill="none" stroke="#474e56" stroke-width="0.80" stroke-linecap="round" stroke-linejoin="round" opacity="0.35"/><path d="M197.0,66.5 L206.0,66.6 L215.0,67.0" fill="none" stroke="#474e56" stroke-width="0.70" stroke-linecap="round" stroke-linejoin="round" opacity="0.45"/><path d="M197.0,74.0 L201.0,74.0 L201.0,87.0 L197.0,87.0 Z" fill="#fff" opacity="1.0"/><path d="M197.0,74.5 L200.5,74.0 L201.0,86.8 L197.1,87.0 L197.0,74.0" fill="none" stroke="#474e56" stroke-width="1.00" stroke-linecap="round" stroke-linejoin="round" opacity="1.00"/><path d="M197.0,74.5 L200.3,74.0 L201.0,86.0 L197.9,87.0 L197.0,74.0" fill="none" stroke="#474e56" stroke-width="0.80" stroke-linecap="round" stroke-linejoin="round" opacity="0.35"/><path d="M211.0,74.0 L215.0,74.0 L215.0,87.0 L211.0,87.0 Z" fill="#fff" opacity="1.0"/><path d="M211.0,74.5 L214.5,74.0 L215.0,86.8 L211.0,87.0 L211.0,74.0" fill="none" stroke="#474e56" stroke-width="1.00" stroke-linecap="round" stroke-linejoin="round" opacity="1.00"/><path d="M211.0,74.7 L214.5,74.0 L215.0,87.3 L210.4,87.0 L211.0,74.0" fill="none" stroke="#474e56" stroke-width="0.80" stroke-linecap="round" stroke-linejoin="round" opacity="0.35"/><path d="M199.5,82.0 L212.5,82.0 L212.5,92.0 L199.5,92.0 Z" fill="#d3f0f3" opacity="1.0"/>
<path d="M199.5,81.9 L212.2,82.0 L212.5,91.5 L199.9,92.0 L199.5,82.0" fill="none" stroke="#117780" stroke-width="1.10" stroke-linecap="round" stroke-linejoin="round" opacity="1.00"/><path d="M199.5,81.6 L213.5,82.0 L212.5,92.7 L199.9,92.0 L199.5,82.0" fill="none" stroke="#117780" stroke-width="0.88" stroke-linecap="round" stroke-linejoin="round" opacity="0.35"/><path d="M134.2,113.0 L134.9,107.7 L135.5,102.7 L136.0,97.9 L136.6,93.3 L137.3,89.0 L138.2,84.8 L139.5,80.8 L141.2,77.1 L143.2,73.6 L145.6,70.6 L148.1,67.9 L150.8,65.7 L153.4,64.0 L155.8,62.7 L157.9,61.9 L159.6,61.3 L161.0,61.0 L162.1,60.8 L163.0,60.6 L163.8,60.2 L164.8,59.7 L166.0,59.0 L167.7,58.0 L169.8,57.0 L172.5,56.1 L175.5,55.3 L179.0,54.8 L182.6,54.8 L186.2,55.4 L189.6,56.7 L192.8,58.6 L195.5,61.1 L197.7,64.1 L199.5,67.5 L200.8,71.2 L201.9,74.9 L202.8,78.7 L203.7,82.3 L204.7,85.7 L206.0,89.0" fill="none" stroke="#117780" stroke-width="0.80" stroke-linecap="round" stroke-linejoin="round" opacity="0.18"/><path d="M133.9,113.0 L134.9,107.3 L136.3,101.9 L137.9,96.7 L139.7,91.9 L141.7,87.4 L143.6,83.3 L145.5,79.7 L147.3,76.5 L149.0,73.7 L150.4,71.2 L151.7,68.9 L152.8,66.8 L153.8,64.7 L154.8,62.6 L155.8,60.6 L156.9,58.5 L158.1,56.6 L159.5,54.7 L161.2,53.2 L163.1,51.9 L165.2,51.2 L167.4,50.9 L169.8,51.1 L172.2,51.9 L174.7,53.1 L177.2,54.7 L179.7,56.6 L182.1,58.7 L184.5,60.9 L186.9,63.1 L189.2,65.3 L191.4,67.5 L193.6,69.6 L195.7,71.8 L197.8,74.1 L199.7,76.5 L201.6,79.2 L203.2,82.1 L204.8,85.4 L206.0,89.0" fill="none" stroke="#117780" stroke-width="0.80" stroke-linecap="round" stroke-linejoin="round" opacity="0.28"/><path d="M134.2,113.0 L135.1,107.8 L136.2,102.8 L137.5,98.1 L138.9,93.7 L140.5,89.5 L142.1,85.7 L143.6,82.2 L145.2,78.9 L146.7,76.0 L148.1,73.4 L149.5,71.1 L151.0,69.0 L152.5,67.2 L154.1,65.5 L155.8,64.1 L157.8,62.7 L160.0,61.5 L162.3,60.3 L164.8,59.2 L167.5,58.2 L170.2,57.3 L172.9,56.5 L175.6,55.8 L178.1,55.3 L180.5,55.1 L182.7,55.1 L184.8,55.5 L186.7,56.3 L188.4,57.5 L190.1,59.1 L191.8,61.1 L193.4,63.5 L195.1,66.1 L196.7,69.0 L198.4,72.1 L200.0,75.4 L201.6,78.7 L203.2,82.1 L204.6,85.5 L206.0,89.0" fill="none" stroke="#117780" stroke-width="0.80" stroke-linecap="round" stroke-linejoin="round" opacity="0.38"/><path d="M133.8,113.0 L134.7,107.7 L135.8,102.8 L137.2,98.1 L138.7,93.7 L140.3,89.4 L142.0,85.2 L143.7,81.1 L145.3,77.1 L146.9,73.2 L148.4,69.6 L149.9,66.1 L151.4,63.0 L152.9,60.3 L154.4,58.0 L156.1,56.2 L157.8,54.9 L159.7,54.0 L161.8,53.5 L163.9,53.4 L166.1,53.6 L168.4,54.0 L170.7,54.5 L173.1,55.2 L175.4,55.9 L177.7,56.6 L180.0,57.5 L182.1,58.4 L184.3,59.4 L186.3,60.7 L188.4,62.1 L190.3,63.8 L192.3,65.8 L194.2,68.0 L196.2,70.4 L198.0,73.1 L199.8,75.9 L201.6,79.0 L203.2,82.2 L204.7,85.5 L206.0,89.0" fill="none" stroke="#117780" stroke-width="0.80" stroke-linecap="round" stroke-linejoin="round" opacity="0.48"/><path d="M134.2,113.0 L135.0,107.7 L135.9,102.6 L136.9,97.8 L138.0,93.3 L139.2,89.1 L140.6,85.1 L142.1,81.6 L143.7,78.3 L145.4,75.3 L147.3,72.6 L149.2,70.1 L151.2,67.8 L153.2,65.7 L155.1,63.8 L157.1,62.1 L159.1,60.4 L161.0,59.0 L162.9,57.6 L164.9,56.5 L166.8,55.6 L168.9,54.9 L171.0,54.4 L173.1,54.3 L175.4,54.4 L177.7,54.8 L180.1,55.5 L182.6,56.5 L185.0,57.8 L187.4,59.3 L189.8,61.1 L192.0,63.0 L194.1,65.2 L196.0,67.5 L197.8,70.1 L199.4,72.8 L200.9,75.7 L202.3,78.8 L203.6,82.0 L204.9,85.4 L206.0,89.0" fill="none" stroke="#117780" stroke-width="0.80" stroke-linecap="round" stroke-linejoin="round" opacity="0.58"/><path d="M134.0,113.0 L134.8,107.7 L135.8,102.6 L136.9,97.8 L138.1,93.3 L139.4,89.0 L140.8,85.0 L142.3,81.3 L143.9,77.8 L145.5,74.6 L147.3,71.6 L149.1,68.9 L151.0,66.4 L152.9,64.1 L154.9,62.1 L156.9,60.4 L159.0,58.9 L161.2,57.6 L163.3,56.5 L165.5,55.7 L167.7,55.2 L170.0,54.8 L172.2,54.7 L174.4,54.8 L176.7,55.2 L178.9,55.7 L181.0,56.5 L183.2,57.5 L185.3,58.7 L187.4,60.2 L189.4,61.8 L191.4,63.7 L193.3,65.7 L195.2,67.9 L196.9,70.4 L198.6,73.0 L200.3,75.8 L201.8,78.9 L203.3,82.1 L204.7,85.4 L206.0,89.0" fill="none" stroke="#117780" stroke-width="1.40" stroke-linecap="round" stroke-linejoin="round" opacity="1.00"/>
</g>
</svg>
